<svg xmlns="http://www.w3.org/2000/svg" xmlns:v="https://vecta.io/nano" width="161" height="26" fill="#6e6e6e">
<path d="M139.2 16.357v8.94h5v-8.822c0-3.33 1.296-4.44 3.6-4.44h1.767v-4.44h-2.175c-5.248 0-8.193 3.214-8.193 8.764zm-70.714.003v8.94h5v-8.822c0-3.33 1.297-4.44 3.595-4.44h1.765v-4.44H76.68c-5.245 0-8.192 3.214-8.192 8.764zM151.5 6.25c0-.643.063-2.98 2.12-4.323 1.414-.818 2.9-.818 4.423-.818h1.948v3.915h-1.124c-.77 0-1.53.058-1.948.818-.3.4-.3.643-.3 1.403v.584h3.362v4.03h-3.362v10.166s-.118 3.272-2.9 3.272h-2.24V6.25zM8.546 20.742h2.122c1.12-.058 2.063-.175 2.77-1.1.6-.76.6-1.52.6-1.87 0-1.986-1.474-2.687-2.18-2.804-.53-.117-1.6-.117-2.888-.117H5.422v5.2s.06.7.707.7h2.417zM8.37 10.518c1.886 0 3.123.058 3.9-.293.47-.233 1.297-.818 1.297-2.22 0-1.343-.943-1.928-1.415-2.044-.708-.292-1.6-.292-3.183-.292H5.422v4.85H8.37zM8.134 1.1l3.95.058c.884.117 3.536.292 5.48 2.337a5.38 5.38 0 0 1 1.415 3.74c0 .934-.177 3.096-2.3 4.5-.47.35-.707.408-1.178.584.825.35 1.296.7 1.6.934 1.002.643 2.534 2.162 2.534 5.025 0 .7-.118 2.395-1.18 3.973-2.298 3.272-6.424 3.038-7.426 3.038H3.477C.118 25.3 0 21.852 0 21.852V1.1h8.134zM40.96 7.772h5.128V25.3H40.96V7.772zm62.18 8.82c0 2.22.644 3.4 1.35 4.148.652.76 1.414 1.052 2.42 1.052s1.712-.35 2.003-.584c1.06-.76 1.767-2.162 1.767-4.8 0-.4.118-2.92-1.47-4.265-.353-.292-1.06-.76-2.184-.76-1.885.058-3.888 1.343-3.888 5.2zM115.754 1.1v24.188h-5.074c0-.058 0-1.285.118-2.045-.4.818-.762 1.17-1.116 1.46-1.358 1.168-3.362 1.168-3.833 1.168-.534 0-1.948 0-3.3-.643-2.003-.993-4.54-3.447-4.54-8.53 0-.643.063-2.28.652-3.973 1.115-3.27 3.707-5.5 7.305-5.5 1.948 0 3.244.7 3.888 1.168.354.35.534.643.652.818V4.266s-.063-3.155 3.3-3.155h1.948zm-82.16 13.322c0-.117 0-.408-.118-.76-.354-1.578-1.768-2.512-3.36-2.512-1.65 0-2.947.934-3.536 2.454-.118.35-.177.76-.236.876l7.25-.058zm-7.2 3.623c0 .818.236 1.46.707 2.162 1.002 1.577 2.594 1.694 3.242 1.694 1.886 0 2.653-.993 3.124-1.636h5.246C36.778 25.6 32.062 26 30.117 26c-1.6-.058-2.77-.35-3.36-.584-3.713-1.344-5.6-4.85-5.6-8.647 0-.993.118-3.914 2.004-6.368.943-1.227 3.065-3.213 7.014-3.213a10.01 10.01 0 0 1 3.654.701c1.768.76 4.008 2.512 4.833 6.72.06.468.294 1.577.294 2.863 0 .175 0 .408-.06.584H26.404zm34.655-3.623c0-.117 0-.408-.118-.76-.354-1.578-1.768-2.512-3.36-2.512-1.65 0-3.005.934-3.536 2.454-.118.35-.236.76-.236.876l7.25-.058zm-7.25 3.623c.06.818.295 1.46.708 2.162 1.06 1.577 2.593 1.694 3.242 1.694 1.886 0 2.7-.993 3.123-1.636h5.246C64.243 25.6 59.53 26 57.583 26c-1.65-.058-2.77-.35-3.36-.584-3.773-1.344-5.66-4.85-5.66-8.647 0-.993.118-3.914 2.063-6.368.943-1.227 3.064-3.213 6.954-3.213.65 0 2.122.058 3.655.7 1.768.76 4.066 2.512 4.832 6.72.06.468.294 1.577.294 2.863 0 .175 0 .408-.06.584H53.8zm37.305-5.025c-.055-.35-.173-.584-.353-.877-.354-.643-1.233-1.227-2.773-1.227-.47 0-.825.058-.943.058-1.115.293-1.532.993-1.532 1.52 0 .584.534.877.707.935.236.175 1.123.35 2.003.584l1.893.35 1.65.35c1.767.467 3.236.993 4.06 2.746.118.35.47 1.227.47 2.278 0 .584-.055 1.986-1.06 3.4-.998 1.52-2.946 2.746-6.834 2.746-3.833 0-5.773-1.17-6.897-2.512-.526-.7-1.233-1.694-1.414-3.74h4.894a2.52 2.52 0 0 0 .408 1.285c.416.584 1.414 1.227 3.126 1.227.18 0 .6 0 1.06-.117.18-.058 1.594-.4 1.594-1.636s-1.123-1.402-3.008-1.8c-3.3-.76-4.95-1.1-6.2-2.22-1.296-1.168-1.35-2.746-1.35-3.33 0-1.52.6-2.512.88-3.038 1.005-1.46 2.828-2.746 6.543-2.746.825 0 4.477-.058 6.598 2.512 1.123 1.344 1.24 2.63 1.24 3.272H91.1zm32.227 3.56c0 3.973 2.247 5.2 4.187 5.2.298 0 1.123-.058 1.885-.4 1.178-.643 2.3-2.045 2.3-4.966 0-.293 0-1.403-.353-2.395-.3-.935-1.178-2.746-3.833-2.746-1.94.058-4.187 1.168-4.187 5.316zm10.44-7.303c2.12 1.753 3.12 4.557 3.12 7.187 0 3.914-2.176 7.654-6 8.94-.707.234-1.768.467-3.417.467-.652 0-2.12 0-3.778-.584-3.653-1.402-5.538-4.908-5.538-8.705 0-3.4 1.476-5.55 2.356-6.6 1.124-1.1 3.3-2.746 7.133-2.746 1.005.058 3.77.117 6.134 2.044zM46.5 2.746c0 1.52-1.356 2.746-3.005 2.746-1.6 0-2.947-1.227-2.947-2.746C40.547 1.168 41.902 0 43.494 0c1.65 0 3.005 1.168 3.005 2.746z"/>
</svg>