<svg width="250" height="160" fill="none" xmlns="http://www.w3.org/2000/svg"><path d="M126.4 152.6a72 72 0 100-144.2 72 72 0 000 144.2z" fill="#ECBA82"></path><path fill="url(#pattern0)" d="M17.6-28.1h217v217h-217z" opacity=".1"></path><path d="M152.6 108.7H55.1L31.8 65.4a8.5 8.5 0 017.5-12.5h72.8a17.6 17.6 0 0115.5 9.3l25 46.5z" fill="#BDD9BF"></path><path d="M200.8 109a6.1 6.1 0 01-6.2 6.1h-130a10.5 10.5 0 01-9.4-6.1h145.6z" fill="#006494"></path><path d="M127.6 62.2a17.6 17.6 0 00-15.5-9.3H39.3a8.5 8.5 0 00-7.8 11.6h97.4l-1.3-2.3z" fill="#2292A4"></path><path d="M42.6 61.7a3 3 0 100-5.9 3 3 0 000 5.9zM52 61.7a3 3 0 100-5.9 3 3 0 000 5.9zM61.5 61.7a3 3 0 100-5.9 3 3 0 000 5.9zM66.4 70.9H48.3a2.3 2.3 0 100 4.6h18.1a2.3 2.3 0 100-4.6z" fill="#fff"></path><path d="M129.4 81.5h-18.1a2.3 2.3 0 100 4.7h18.1a2.3 2.3 0 100-4.7z" fill="#006494"></path><path d="M108.1 93.1H90a2.3 2.3 0 100 4.7H108a2.3 2.3 0 100-4.7z" fill="#fff"></path><path d="M85.2 70.9H77a2.3 2.3 0 100 4.6h8.2a2.3 2.3 0 100-4.6z" fill="#FFC857"></path><path d="M63.1 82.2H55a2.3 2.3 0 100 4.6H63a2.3 2.3 0 100-4.6z" fill="#fff"></path><path d="M68 93.6h-8.2a2.3 2.3 0 100 4.7H68a2.3 2.3 0 100-4.7z" fill="#DA5E5C"></path><path d="M83.1 93.6H75a2.3 2.3 0 100 4.7H83a2.3 2.3 0 100-4.7zM121.8 70.9H93.7a2.3 2.3 0 100 4.6h28.1a2.3 2.3 0 100-4.6zM102 81.8H73.8a2.3 2.3 0 100 4.7H102a2.3 2.3 0 100-4.7z" fill="#fff"></path><path d="M172.6 55.7l-4.2-4.3-17.3 17.4L168.4 86l4.2-4.2-13-13.1 13-13.1zM203 55.7l4.3-4.3 17.3 17.4L207.3 86l-4.2-4.2 13-13.1-13-13.1zM200 47.5l-5.5-2.2L176.3 90l5.5 2.2L195 60.2l5-12.7z" fill="#2292A4"></path><defs><clipPath id="clip0"><path fill="#fff" d="M0 0h250v160H0z"></path></clipPath><pattern id="pattern0" patternContentUnits="objectBoundingBox" width="1" height="1"><use transform="scale(.0046)"></use></pattern><image id="image0" width="217" height="218"></image></defs></svg>