<svg xmlns="http://www.w3.org/2000/svg" xmlns:v="https://vecta.io/nano" width="64" height="44" fill="#6e6e6e"><path fill-rule="evenodd" d="M7.075 0h50.287c3.394 0 6.255 2.733 6.255 6.266v31.403c0 3.533-2.86 6.332-6.255 6.332H7.075C3.62 44 .758 41.2.758 37.668V6.266C.758 2.733 3.62 0 7.075 0zM57.36 39.47c1 0 1.664-.802 1.664-1.803V6.265c0-1-.663-1.8-1.664-1.8H7.075c-.997 0-1.728.8-1.728 1.8v31.403c0 1 .73 1.803 1.728 1.803H57.36z"/><path d="M45.656 36.402H34.482V7.598h11.706c5.52 0 8.515 2.267 8.515 7.668 0 2.8-2.33 4.8-4.854 6.067 3.524.997 5.92 3.137 5.92 6.732 0 5.868-4.925 8.338-10.113 8.338zM41.332 19h2.397c2.26 0 3.924-1 3.924-3.47 0-2.733-2.132-3.468-4.4-3.468h-1.93V19zm7.117 8.93c0-2.932-1.86-3.6-4.587-3.6h-2.53v7.403h2.463c2.463 0 4.653-.802 4.653-3.804zm-28.466 8.472H9.406V7.598h10.577c7.45 0 11.438 4.668 11.438 14.267 0 8.336-2.66 14.466-11.438 14.537zm4.6-13.938c0-5.8-.603-10.333-6.852-10.333h-1.4v19.603h2.46c3.66 0 5.8-2.934 5.8-9.27z"/></svg>