<svg xmlns="http://www.w3.org/2000/svg" xmlns:v="https://vecta.io/nano" width="132" height="20" fill="none"><path fill-rule="evenodd" d="M41.513 0c-2.93 0-5.334 1.987-5.334 5.203 0 2.507 2.03 3.82 5.147 6.035 2.418 1.715 3.987 3.028 3.987 4.575 0 1.905-1.586 3.17-3.472 3.17-2.896 0-4.597-2.645-5.662-5.074h-.515l1.03 5.906h.515c.05-.412.383-.638.702-.638.504 0 2.53.823 4.445.823 3.2 0 5.653-2.357 5.653-5.397 0-2.716-2.294-4.43-4.69-5.84-2.927-1.743-4.764-2.9-4.764-4.695 0-1.72 1.31-2.985 2.957-2.985 2.686 0 4.338 2.365 5.082 4.824h.515l-.58-5.72h-.58c.077.442.003.702-.45.702C44.355.887 43.614 0 41.513 0zM.616.444v.573c2.127 0 2.892.458 2.892 2.726v12.514c0 2.27-.764 2.726-2.892 2.726v.573h16.33l1.48-4.695-.515-.194c-.692 2.185-2.175 3.688-4.567 3.688H7.69c-1.224 0-1.29-.547-1.29-2.292v-6.035h5.596c1.81 0 2.412.85 2.574 2.67h.515V6.285h-.515c-.188 1.857-.734 2.606-2.574 2.606H6.4V3.558c0-1.613-.038-1.913 1.16-1.913h5.082c2.207 0 3.315.663 3.603 2.985h.57L16.563.444H.616zm17.622 0v.573c1.968.107 2.695.472 2.695 2.662v12.643c0 2.2-.727 2.555-2.695 2.662v.573h15.3l1.6-4.89-.646-.13c-1.122 2.627-2.42 3.817-5.27 3.817h-3.8c-1.57 0-1.6-.863-1.6-2.412v-12.2c0-2.27.708-2.726 2.836-2.726V.444h-8.423zm29.9 0v.573c2.125 0 2.826.458 2.826 2.726v12.514c0 2.27-.7 2.726-2.826 2.726v.573h16.33l1.422-4.695-.515-.194c-.692 2.185-2.175 3.688-4.567 3.688h-5.596c-1.224 0-1.348-.547-1.348-2.292v-6.035h5.587c1.808 0 2.414.85 2.574 2.67h.58V6.285h-.58C61.84 8.142 61.3 8.89 59.453 8.89h-5.587V3.558c0-1.613.018-1.913 1.217-1.913H60.1c2.207 0 3.38.663 3.67 2.985h.515L64.02.444H48.14zm16.274 0v.573c.903 0 1.728.486 2.18 1.266 1.062 1.844 1.853 3.785 2.705 5.72l5.147 11.747h.384l6.177-13.974c.476-1.108 1.497-3.992 2.508-4.5.316-.173.645-.196.964-.25V.444h-5.662v.573c1.386.076 2.06.427 2.06 1.017 0 .572-.158 1.274-.71 2.542l-4.633 10.6-3.856-9.02-1.6-4.057c0-1.072 1.512-1.08 2.255-1.08V.444h-7.908zm20.252 0v.573c2.13 0 2.892.458 2.892 2.726v12.514c0 2.27-.762 2.726-2.892 2.726v.573h8.62v-.573c-2.125 0-2.892-.458-2.892-2.726V3.743c0-2.27.767-2.726 2.892-2.726V.444h-8.62zm9.78 0v.573c2.13 0 2.892.458 2.892 2.726v12.514c0 2.27-.762 2.726-2.892 2.726v.573h16.33l1.48-4.695-.515-.194c-.695 2.185-2.17 3.688-4.567 3.688h-5.653c-1.224 0-1.29-.547-1.29-2.292v-6.035h5.596c1.81 0 2.41.85 2.574 2.67h.58V6.285h-.58c-.193 1.857-.737 2.606-2.574 2.606h-5.596V3.558c0-1.613-.036-1.913 1.16-1.913h5.082c2.205 0 3.37.663 3.668 2.985h.506L110.39.444H94.444zm17.744 0v.573c2.122 0 2.9.458 2.9 2.726v12.514c0 2.27-.78 2.726-2.9 2.726v.573h8.62v-.573c-2.127 0-2.826-.458-2.826-2.726v-5.213h2.377l6.944 8.512h4.314v-.573c-1.19-.328-1.606-.638-2.32-1.525l-5.85-7.107c2.88-.615 4.885-2.065 4.885-5.213 0-4.46-4.062-4.695-7.393-4.695h-8.75zm7.852 1.017c2.636 0 5.016.947 5.016 4.067 0 3.376-2.728 4.316-5.596 4.316h-1.48V2.856c0-1.298.304-1.396 2.06-1.396z" fill="#6e6e6e"/></svg>