<svg xmlns="http://www.w3.org/2000/svg" xmlns:v="https://vecta.io/nano" width="94" height="44" fill="#6e6e6e"><path d="M5.73 26h4.718c.894 0 1.73.653 1.775 1.52h.043v-3.557H5.73l-.003-6.244h6.306c.898 0 1.734.65 1.78 1.514h.04l-.006-3.56-13.233.005v.04c.9.048 1.56.992 1.56 1.874v16.356c0 .878-.668 1.826-1.56 1.876v.038H7.3v-.038c-.892-.05-1.566-.998-1.566-1.876l.003-7.947zm13.66 4.434c0 2.1 1.75 3.913 3.9 3.913s3.914-1.84 3.914-3.938V17.582c0-.88-.67-1.825-1.564-1.873v-.038l6.68-.006v.045c-.892.05-1.567.992-1.567 1.873v12.455c0 4-3.324 6.345-7.446 6.345-4.13 0-7.5-2.336-7.5-6.345l.01-12.455c0-.88-.674-1.825-1.56-1.873v-.045h6.672v.045c-.9.053-1.56.998-1.56 1.873l.003 12.843zm54.6-11.49c-1.12-1.803-3.674-1.586-3.674-1.586-4.178 0-3.98 3.178-3.98 3.178s-.287 1.594 1.812 2.682l4.177 2.213c4.033 2.158 3.555 5.224 3.555 5.224s.182 5.728-8.252 5.728c0 0-2.45.075-3.838-.444l-1.187-3.7h.04c1.285 1.847 5.018 2.114 5.018 2.114 4.74-.208 4.772-3.42 4.772-3.42s.213-1.383-1.642-2.384l-4.158-2.212c-4.34-2.313-3.843-5.427-3.843-5.427s-.103-5.635 7.36-5.635c0 0 3.35.086 3.883.607v3.072h-.043zM41.427 8.645c.74.724 1.772 1.17 2.9 1.17 2.27 0 4.1-1.787 4.1-3.995 0-2.202-1.838-3.992-4.1-3.992 0 0-3.164-.292-4.588 3.644l.005-2.955c1.06-1.348 2.7-2.33 4.583-2.33 3.205 0 5.797 2.52 5.797 5.63s-2.593 5.636-5.797 5.636a5.83 5.83 0 0 1-4.095-1.652l-1.994-2.18a3.04 3.04 0 0 0-2.123-.854c-1.66 0-3.007 1.305-3.007 2.917 0 1.618 1.346 2.926 3.007 2.926 0 0 2.22.3 3.623-2.386l.005 2.366a4.75 4.75 0 0 1-3.628 1.66c-2.592 0-4.697-2.045-4.697-4.567s2.105-4.557 4.697-4.557a4.72 4.72 0 0 1 3.315 1.337l1.996 2.18zm1.068 8.895c0-.882-.672-1.786-1.562-1.83v-.038H47.6v.038c-.885.05-1.56.954-1.56 1.83v16.4c0 .88.675 1.827 1.56 1.88v.037h-6.666V35.8c.9-.052 1.562-1 1.562-1.88v-16.4zm-4.195.042c0-.882.67-1.825 1.56-1.874v-.04h-6.676v.04c.893.05 1.56.992 1.56 1.874l.005 20.5s-.075 3.618-3 5.7l.007.04c.575-.094 6.537-1.194 6.537-6.953l.007-19.277zm9.275 1.718h.04c.904-1.573 2.298-1.6 2.298-1.6h3.614l.002 16.23c0 .878-.672 1.82-1.562 1.87v.037h6.685V35.8c-.897-.053-1.572-1-1.572-1.87l.005-16.23 3.02-.007c.917 0 1.644.7 1.67 1.598h.037l1.1-3.637H48.688L47.575 19.3zm33.27 11.124c0 2.1 1.75 3.913 3.9 3.913s3.913-1.84 3.913-3.938V17.582c0-.88-.67-1.825-1.56-1.873v-.038l6.676-.006v.045c-.885.05-1.56.992-1.56 1.873v12.455c0 4-3.325 6.345-7.454 6.345-4.122 0-7.482-2.336-7.482-6.345l.005-12.455c0-.88-.672-1.825-1.564-1.873v-.045h6.678v.045c-.894.053-1.566.998-1.566 1.873l.005 12.843z"/></svg>